<svg xmlns="http://www.w3.org/2000/svg" viewBox="0 0 900 280" fill="none">
  <!-- Background -->
  <rect width="900" height="280" rx="12" fill="#1a1613"/>

  <!-- Card 1: FTR-CB-1001 (Feature - blue) -->
  <rect x="24" y="20" width="200" height="190" rx="10" fill="#2a2520" stroke="#3d372e" stroke-width="1.5"/>
  <!-- Task key -->
  <text x="44" y="50" font-family="monospace" font-size="14" font-weight="700" fill="#ebe4d8">FTR-CB-1001</text>
  <!-- Type badge -->
  <rect x="44" y="62" width="68" height="22" rx="6" fill="#1e3a5f"/>
  <text x="78" y="77" font-family="system-ui" font-size="10" font-weight="600" fill="#60a5fa" text-anchor="middle">feature</text>
  <!-- Status indicator bar -->
  <rect x="24" y="20" width="200" height="4" rx="2" fill="#60a5fa"/>
  <!-- Title -->
  <text x="44" y="110" font-family="system-ui" font-size="12" font-weight="500" fill="#ebe4d8">User authentication</text>
  <text x="44" y="128" font-family="system-ui" font-size="11" fill="#736858">OAuth2 integration with</text>
  <text x="44" y="143" font-family="system-ui" font-size="11" fill="#736858">social login providers</text>
  <!-- Bottom meta -->
  <line x1="36" y1="166" x2="212" y2="166" stroke="#3d372e" stroke-width="1"/>
  <circle cx="52" cy="186" r="10" fill="#3d372e"/>
  <text x="52" y="190" font-family="system-ui" font-size="9" font-weight="600" fill="#b5ab9a" text-anchor="middle">BH</text>
  <text x="70" y="190" font-family="system-ui" font-size="10" fill="#736858">2 days ago</text>

  <!-- Card 2: BUG-CB-1002 (Bugfix - amber) -->
  <rect x="240" y="20" width="200" height="190" rx="10" fill="#2a2520" stroke="#3d372e" stroke-width="1.5"/>
  <text x="260" y="50" font-family="monospace" font-size="14" font-weight="700" fill="#ebe4d8">BUG-CB-1002</text>
  <rect x="260" y="62" width="56" height="22" rx="6" fill="#5f3a1e"/>
  <text x="288" y="77" font-family="system-ui" font-size="10" font-weight="600" fill="#fbbf24" text-anchor="middle">bugfix</text>
  <rect x="240" y="20" width="200" height="4" rx="2" fill="#fbbf24"/>
  <text x="260" y="110" font-family="system-ui" font-size="12" font-weight="500" fill="#ebe4d8">Login redirect loop</text>
  <text x="260" y="128" font-family="system-ui" font-size="11" fill="#736858">Session token not clearing</text>
  <text x="260" y="143" font-family="system-ui" font-size="11" fill="#736858">on failed auth attempts</text>
  <line x1="252" y1="166" x2="428" y2="166" stroke="#3d372e" stroke-width="1"/>
  <circle cx="268" cy="186" r="10" fill="#3d372e"/>
  <text x="268" y="190" font-family="system-ui" font-size="9" font-weight="600" fill="#b5ab9a" text-anchor="middle">AK</text>
  <text x="286" y="190" font-family="system-ui" font-size="10" fill="#736858">5 hours ago</text>

  <!-- Card 3: REF-CB-1003 (Refactor - purple) -->
  <rect x="456" y="20" width="200" height="190" rx="10" fill="#2a2520" stroke="#3d372e" stroke-width="1.5"/>
  <text x="476" y="50" font-family="monospace" font-size="14" font-weight="700" fill="#ebe4d8">REF-CB-1003</text>
  <rect x="476" y="62" width="66" height="22" rx="6" fill="#3a1e5f"/>
  <text x="509" y="77" font-family="system-ui" font-size="10" font-weight="600" fill="#c084fc" text-anchor="middle">refactor</text>
  <rect x="456" y="20" width="200" height="4" rx="2" fill="#c084fc"/>
  <text x="476" y="110" font-family="system-ui" font-size="12" font-weight="500" fill="#ebe4d8">API response types</text>
  <text x="476" y="128" font-family="system-ui" font-size="11" fill="#736858">Migrate REST handlers to</text>
  <text x="476" y="143" font-family="system-ui" font-size="11" fill="#736858">typed response schemas</text>
  <line x1="468" y1="166" x2="644" y2="166" stroke="#3d372e" stroke-width="1"/>
  <circle cx="484" cy="186" r="10" fill="#3d372e"/>
  <text x="484" y="190" font-family="system-ui" font-size="9" font-weight="600" fill="#b5ab9a" text-anchor="middle">JD</text>
  <text x="502" y="190" font-family="system-ui" font-size="10" fill="#736858">1 day ago</text>

  <!-- Card 4: TST-CB-1004 (Test - green) -->
  <rect x="672" y="20" width="200" height="190" rx="10" fill="#2a2520" stroke="#3d372e" stroke-width="1.5"/>
  <text x="692" y="50" font-family="monospace" font-size="14" font-weight="700" fill="#ebe4d8">TST-CB-1004</text>
  <rect x="692" y="62" width="46" height="22" rx="6" fill="#1e5f2a"/>
  <text x="715" y="77" font-family="system-ui" font-size="10" font-weight="600" fill="#4ade80" text-anchor="middle">test</text>
  <rect x="672" y="20" width="200" height="4" rx="2" fill="#4ade80"/>
  <text x="692" y="110" font-family="system-ui" font-size="12" font-weight="500" fill="#ebe4d8">E2E auth flow tests</text>
  <text x="692" y="128" font-family="system-ui" font-size="11" fill="#736858">Playwright tests for login,</text>
  <text x="692" y="143" font-family="system-ui" font-size="11" fill="#736858">signup, and password reset</text>
  <line x1="684" y1="166" x2="860" y2="166" stroke="#3d372e" stroke-width="1"/>
  <circle cx="700" cy="186" r="10" fill="#3d372e"/>
  <text x="700" y="190" font-family="system-ui" font-size="9" font-weight="600" fill="#b5ab9a" text-anchor="middle">ML</text>
  <text x="718" y="190" font-family="system-ui" font-size="10" fill="#736858">3 hours ago</text>

  <!-- Bottom note -->
  <rect x="220" y="226" width="460" height="36" rx="8" fill="#2a2520" stroke="#3d372e" stroke-width="1"/>
  <!-- Key icon -->
  <g transform="translate(238, 236)">
    <circle cx="6" cy="6" r="5" fill="none" stroke="#DA7756" stroke-width="1.5"/>
    <line x1="10" y1="8" x2="18" y2="16" stroke="#DA7756" stroke-width="1.5" stroke-linecap="round"/>
    <line x1="14" y1="12" x2="16" y2="10" stroke="#DA7756" stroke-width="1.5" stroke-linecap="round"/>
  </g>
  <text x="268" y="249" font-family="system-ui" font-size="11" fill="#b5ab9a">Auto-generated from</text>
  <text x="387" y="249" font-family="monospace" font-size="11" fill="#DA7756">type prefix</text>
  <text x="460" y="249" font-family="system-ui" font-size="11" fill="#b5ab9a">+</text>
  <text x="473" y="249" font-family="monospace" font-size="11" fill="#DA7756">project key</text>
  <text x="555" y="249" font-family="system-ui" font-size="11" fill="#b5ab9a">+</text>
  <text x="568" y="249" font-family="monospace" font-size="11" fill="#DA7756">counter</text>
</svg>